<svg width="32" height="32" viewBox="0 0 64 64" xmlns="http://www.w3.org/2000/svg"><g fill="none" fill-rule="evenodd"><path d="M50.563 8.101c-1.008.222-2.271 1.041-2.949 2.73-.78 1.933-1.174 4.843-1.386 7.84l1.658.33c.952.183 5.7 1.403 5.726 7.455.024 6.06-4.712 7.32-5.618 7.502l-2.092.436c-.432 12.198-4.14 21.41-11.046 27.414-.284.246-.572.47-.856.698 7.242-.55 14.328-3.538 19.868-9.076 12.316-12.314 12.316-32.282 0-44.598-.182-.182-1.449-1.141-3.305-.731zM17.161 34.646l-1.972-.402c-.952-.186-5.696-1.428-5.696-7.482 0-6.058 4.746-7.296 5.654-7.476l3.206-.654C19.981 11.022 23.301 5 28.253.696c.282-.244.568-.468.854-.696-7.242.552-14.332 3.54-19.87 9.076C-2.79 21.105-3.073 40.427 8.39 52.795c1.589 1.504 6.4.752 7.521-2.359 1.014-3.648 1.212-9.642 1.25-15.79z" fill="#50E3C2"/><path d="M13.055 62.908c.124.02 1.104.162 2.622.162 3.466 0 9.738-.744 15.082-5.386 6.146-5.344 9.178-14.176 9.018-26.238v-.682l.002-.85 6.826-1.426c.81-.162.848-.804.844-1.604-.002-.798-.05-1.434-.86-1.59l-6.74-1.338c.306-12.766 1.9-20.324 9.676-20.428.878-.012.99-.698 1.054-1.574.06-.878.05-1.656-.82-1.79-.12-.02-1.1-.164-2.618-.164-3.464 0-9.74.744-15.082 5.384-4.73 4.114-7.596 10.32-8.602 18.464l-7.238 1.476c-.81.16-.854.796-.854 1.598 0 .798.044 1.436.854 1.596l6.858 1.396c-.008.578-.042 1.126-.036 1.718v.658c-.012 16.878-.674 27.132-9.75 27.254-.88.012-1.22.698-1.282 1.572-.06.88.176 1.658 1.046 1.792" fill="#236B5B"/></g></svg>